STARTFONT 2.3
FONT -FontForge-Zen Loop-Book-R-Normal--36-360-72-72-P-114-ISO10646-1
SIZE 36 72 72  2
FONTBOUNDINGBOX 31 40 -4 -10
COMMENT "Generated by fontforge, http://fontforge.sourceforge.net"
COMMENT "Copyright 2021 The Zen-Loop Project Authors (https://github.com/googlefonts/zen-loop)"
STARTPROPERTIES 40
FOUNDRY "FontForge"
FAMILY_NAME "Zen Loop"
WEIGHT_NAME "Book"
SLANT "R"
SETWIDTH_NAME "Normal"
ADD_STYLE_NAME ""
PIXEL_SIZE 36
POINT_SIZE 360
RESOLUTION_X 72
RESOLUTION_Y 72
SPACING "P"
AVERAGE_WIDTH 114
CHARSET_REGISTRY "ISO10646"
CHARSET_ENCODING "1"
FONTNAME_REGISTRY ""
CHARSET_COLLECTIONS "ISO10646-1"
BITS_PER_PIXEL 2
FONT_NAME "ZenLoop-Regular"
FACE_NAME "Zen Loop Regular"
COPYRIGHT "Copyright 2021 The Zen-Loop Project Authors (https://github.com/googlefonts/zen-loop)"
FONT_VERSION "1.000; ttfautohint (v1.8.3)"
FONT_ASCENT 29
FONT_DESCENT 7
UNDERLINE_POSITION -5
UNDERLINE_THICKNESS 1
X_HEIGHT 16
CAP_HEIGHT 24
RAW_ASCENT 800
RAW_DESCENT 200
NORM_SPACE 9
RELATIVE_WEIGHT 40
RELATIVE_SETWIDTH 50
SUPERSCRIPT_X 0
SUPERSCRIPT_Y 12
SUPERSCRIPT_SIZE 21
SUBSCRIPT_X 0
SUBSCRIPT_Y 2
SUBSCRIPT_SIZE 21
AVG_LOWERCASE_WIDTH 102
AVG_UPPERCASE_WIDTH 136
ENDPROPERTIES
CHARS 248
STARTCHAR CR
ENCODING 13
SWIDTH 600 0
DWIDTH 22 0
BBX 1 1 0 0
BITMAP
00
ENDCHAR
STARTCHAR space
ENCODING 32
SWIDTH 240 0
DWIDTH 9 0
BBX 1 1 0 0
BITMAP
00
ENDCHAR
STARTCHAR exclam
ENCODING 33
SWIDTH 141 0
DWIDTH 5 0
BBX 1 25 2 0
BITMAP
80
80
80
80
80
80
80
80
80
80
80
80
80
80
80
80
80
80
00
00
00
80
80
80
80
ENDCHAR
STARTCHAR quotedbl
ENCODING 34
SWIDTH 195 0
DWIDTH 7 0
BBX 5 7 1 18
BITMAP
6240
6240
6240
6240
6240
6240
6240
ENDCHAR
STARTCHAR numbersign
ENCODING 35
SWIDTH 454 0
DWIDTH 16 0
BBX 15 25 1 0
BITMAP
00080080
00140180
00240140
00200240
00200200
00200200
00600200
00500600
1AEAAEA4
00800900
00800800
00800800
01800800
01401400
02401400
02002000
02002000
ABAABA80
06002000
05005000
08009000
08008000
08008000
18008000
14014000
ENDCHAR
STARTCHAR dollar
ENCODING 36
SWIDTH 356 0
DWIDTH 13 0
BBX 11 31 1 -3
BITMAP
002000
002000
002000
01B900
096180
242060
602020
502000
502000
502000
202000
242000
092000
02A000
00A000
003800
002640
002090
002020
002014
002008
402008
802018
802014
602020
192190
06BA00
002000
002000
002000
001000
ENDCHAR
STARTCHAR percent
ENCODING 37
SWIDTH 470 0
DWIDTH 17 0
BBX 15 25 1 0
BITMAP
0A900080
18240140
20080200
60080200
50090900
90050800
90051400
50092000
60086000
20088000
18248000
06914000
00020000
00051A40
00086090
00088020
00248020
00214014
00514014
00814014
01814014
02008020
02008020
09006090
08001A40
ENDCHAR
STARTCHAR ampersand
ENCODING 38
SWIDTH 520 0
DWIDTH 19 0
BBX 17 25 1 0
BITMAP
0006900000
0018240000
0020080000
0020080000
0020080000
0020180000
0020240000
0020600000
0020800000
0026000000
001C000000
0028000000
0088006900
0205008200
0902024100
1402420000
2000860000
6000990000
5000280000
9000280000
5000280000
6000660000
3000818000
1802406400
06A9000A40
ENDCHAR
STARTCHAR quotesingle
ENCODING 39
SWIDTH 121 0
DWIDTH 4 0
BBX 2 7 1 18
BITMAP
60
60
60
60
60
60
60
ENDCHAR
STARTCHAR parenleft
ENCODING 40
SWIDTH 233 0
DWIDTH 8 0
BBX 5 29 2 -2
BITMAP
0080
0180
0200
0600
0900
0800
1800
2400
2000
2000
6000
5000
5000
5000
5000
5000
5000
5000
2000
2000
2000
2400
1800
0800
0900
0200
0240
0080
0080
ENDCHAR
STARTCHAR parenright
ENCODING 41
SWIDTH 233 0
DWIDTH 8 0
BBX 5 29 1 -2
BITMAP
8000
5000
2000
1800
0800
0900
0600
0200
0200
0140
0180
0080
0080
0080
0080
0080
0080
0080
0180
0140
0240
0200
0200
0500
0800
1800
2000
6000
8000
ENDCHAR
STARTCHAR asterisk
ENCODING 42
SWIDTH 313 0
DWIDTH 11 0
BBX 9 8 1 17
BITMAP
008000
008000
008000
699A40
01E400
026000
061800
080900
ENDCHAR
STARTCHAR plus
ENCODING 43
SWIDTH 577 0
DWIDTH 21 0
BBX 17 17 2 0
BITMAP
0000800000
0000800000
0000800000
0000800000
0000800000
0000800000
0000800000
0000800000
AAAAEAAA80
0000800000
0000800000
0000800000
0000800000
0000800000
0000800000
0000800000
0000800000
ENDCHAR
STARTCHAR comma
ENCODING 44
SWIDTH 145 0
DWIDTH 5 0
BBX 2 7 1 -3
BITMAP
10
20
20
20
20
20
90
ENDCHAR
STARTCHAR hyphen
ENCODING 45
SWIDTH 286 0
DWIDTH 10 0
BBX 8 1 1 10
BITMAP
6AAA
ENDCHAR
STARTCHAR period
ENCODING 46
SWIDTH 181 0
DWIDTH 7 0
BBX 1 4 3 0
BITMAP
80
80
80
80
ENDCHAR
STARTCHAR slash
ENCODING 47
SWIDTH 292 0
DWIDTH 11 0
BBX 11 29 0 -2
BITMAP
000014
000020
000020
000050
000080
000080
000140
000200
000200
000500
000800
000800
001400
002000
002000
005000
008000
008000
014000
020000
020000
050000
080000
080000
140000
200000
200000
500000
800000
ENDCHAR
STARTCHAR zero
ENCODING 48
SWIDTH 378 0
DWIDTH 14 0
BBX 11 25 1 0
BITMAP
01AA00
020180
090090
180020
240020
200014
200008
600008
500008
500008
500008
900008
900008
900008
500008
500008
500008
600008
200008
200014
240020
180020
090090
020180
01AA00
ENDCHAR
STARTCHAR one
ENCODING 49
SWIDTH 303 0
DWIDTH 11 0
BBX 10 25 1 0
BITMAP
02C000
698000
408000
008000
008000
008000
008000
008000
008000
008000
008000
008000
008000
008000
008000
008000
008000
008000
008000
008000
008000
008000
008000
008000
AAEA90
ENDCHAR
STARTCHAR two
ENCODING 50
SWIDTH 343 0
DWIDTH 12 0
BBX 12 25 0 0
BITMAP
00AA40
064060
080024
140018
000008
000008
000008
000008
000018
000024
000020
000050
000180
000200
000900
001400
006000
008000
024000
060000
080000
140000
200000
200000
7AAAA9
ENDCHAR
STARTCHAR three
ENCODING 51
SWIDTH 377 0
DWIDTH 14 0
BBX 11 25 1 0
BITMAP
01AA00
060180
080090
140020
000030
000020
000020
000020
000060
000080
02AA80
091A80
0AA460
000014
000008
000008
000008
000008
000008
000008
000008
000024
900060
240180
06A900
ENDCHAR
STARTCHAR four
ENCODING 52
SWIDTH 389 0
DWIDTH 14 0
BBX 12 25 1 0
BITMAP
000140
000200
000200
000900
000800
001400
002000
006000
008080
008080
024080
020080
050080
080080
180080
200080
200080
900080
AAAAE9
000080
000080
000080
000080
000080
000080
ENDCHAR
STARTCHAR five
ENCODING 53
SWIDTH 372 0
DWIDTH 13 0
BBX 11 27 1 0
BITMAP
000004
000018
03AA90
060000
060000
060000
060000
060000
060000
060000
060000
060000
07A900
1A0180
260060
550024
980008
640008
000008
000008
000008
000008
000008
000024
800060
240180
06A900
ENDCHAR
STARTCHAR six
ENCODING 54
SWIDTH 360 0
DWIDTH 13 0
BBX 11 25 1 0
BITMAP
000600
001800
002000
009000
018000
020000
050000
080000
180000
240000
200000
206A40
624090
550020
500014
900008
900008
900008
500008
600008
200014
200020
180060
0A0180
01AA00
ENDCHAR
STARTCHAR seven
ENCODING 55
SWIDTH 321 0
DWIDTH 12 0
BBX 10 25 1 0
BITMAP
AAAAD0
000080
000080
000140
000200
000200
000500
000800
000800
001400
002000
002000
005000
008000
008000
014000
020000
020000
050000
080000
080000
140000
200000
200000
500000
ENDCHAR
STARTCHAR eight
ENCODING 56
SWIDTH 377 0
DWIDTH 14 0
BBX 11 25 1 0
BITMAP
01AA40
090090
140020
200014
200018
200008
200018
200024
180020
090090
024240
00A900
00A900
024280
0900A0
240024
200008
500008
900008
900008
500008
200018
240024
090090
01AA40
ENDCHAR
STARTCHAR nine
ENCODING 57
SWIDTH 360 0
DWIDTH 13 0
BBX 11 25 1 0
BITMAP
02A900
090280
240090
200060
500020
800024
800014
800014
800018
800014
500014
200154
180624
06A420
000020
000060
000080
000080
000240
000200
000900
001800
002000
009000
024000
ENDCHAR
STARTCHAR colon
ENCODING 58
SWIDTH 181 0
DWIDTH 7 0
BBX 1 18 3 0
BITMAP
80
80
80
80
00
00
00
00
00
00
00
00
00
00
80
80
80
80
ENDCHAR
STARTCHAR semicolon
ENCODING 59
SWIDTH 165 0
DWIDTH 6 0
BBX 2 21 1 -3
BITMAP
20
20
20
20
00
00
00
00
00
00
00
00
00
00
10
20
20
20
20
20
90
ENDCHAR
STARTCHAR less
ENCODING 60
SWIDTH 482 0
DWIDTH 17 0
BBX 14 14 2 2
BITMAP
00000050
00000680
00006800
00068000
00680000
06800000
68000000
E0000000
29000000
02900000
00290000
00029000
00002900
00000290
ENDCHAR
STARTCHAR equal
ENCODING 61
SWIDTH 577 0
DWIDTH 21 0
BBX 17 7 2 5
BITMAP
AAAAAAAA80
0000000000
0000000000
0000000000
0000000000
0000000000
AAAAAAAA80
ENDCHAR
STARTCHAR greater
ENCODING 62
SWIDTH 482 0
DWIDTH 17 0
BBX 14 15 2 1
BITMAP
40000000
A4000000
0A400000
00A40000
000A4000
0001A400
00001A40
000001D0
00000640
00006400
00064000
00640000
06400000
64000000
40000000
ENDCHAR
STARTCHAR question
ENCODING 63
SWIDTH 300 0
DWIDTH 11 0
BBX 8 25 1 0
BITMAP
1AA0
6008
8005
0002
0002
0002
0005
0008
0018
0020
0090
0180
0200
0600
0900
0500
0200
0140
0000
0000
0000
0200
0200
0200
0200
ENDCHAR
STARTCHAR at
ENCODING 64
SWIDTH 748 0
DWIDTH 27 0
BBX 25 25 1 0
BITMAP
00006AAA400000
00069000680000
00280000064000
0090001A009000
02000091402400
09000240800800
18000600800500
24000801800200
20001401400240
60002000000140
50006000000140
90008018000140
90008055000140
90014089000240
50024088000200
60020158000600
20020160000800
240201D0002400
180201C0009000
090246A0064000
0200A41AA40000
00900000002400
00280000019000
000690001A0000
00006AAA900000
ENDCHAR
STARTCHAR A
ENCODING 65
SWIDTH 414 0
DWIDTH 15 0
BBX 15 25 0 0
BITMAP
00020000
00070000
000A4000
00098000
00088000
00189000
00245000
00302000
00202000
00502400
00901800
00C00800
01800800
01400900
02400600
03AAAB00
06000200
09000140
08000180
080000C0
14000090
24000060
20000020
20000020
50000014
ENDCHAR
STARTCHAR B
ENCODING 66
SWIDTH 375 0
DWIDTH 14 0
BBX 10 25 2 0
BITMAP
AAA400
800900
800240
800180
800080
800080
800090
800090
800090
800090
869080
881980
860740
81AA80
800080
800050
800060
800020
800020
800060
800050
800080
800140
800A00
AAA400
ENDCHAR
STARTCHAR C
ENCODING 67
SWIDTH 366 0
DWIDTH 13 0
BBX 11 25 1 0
BITMAP
006A90
028018
060000
080000
140000
200000
200000
600000
500000
500000
500000
900000
900000
900000
500000
500000
500000
600000
200000
200000
140000
080000
060000
028018
006A90
ENDCHAR
STARTCHAR D
ENCODING 68
SWIDTH 396 0
DWIDTH 14 0
BBX 11 25 2 0
BITMAP
AAA800
800600
800080
800050
800020
800020
800024
800014
800018
800008
800008
800008
800008
800008
800008
800008
800018
800014
800024
800020
800020
800050
800080
800600
AAA800
ENDCHAR
STARTCHAR E
ENCODING 69
SWIDTH 309 0
DWIDTH 11 0
BBX 8 25 2 0
BITMAP
AAA9
8000
8000
8000
8000
8000
8000
8000
8000
8000
8000
AAA9
8000
8000
8000
8000
8000
8000
8000
8000
8000
8000
8000
8000
AAA9
ENDCHAR
STARTCHAR F
ENCODING 70
SWIDTH 299 0
DWIDTH 11 0
BBX 8 25 2 0
BITMAP
AAA9
8000
8000
8000
8000
8000
8000
8000
8000
8000
8000
AAA9
8000
8000
8000
8000
8000
8000
8000
8000
8000
8000
8000
8000
8000
ENDCHAR
STARTCHAR G
ENCODING 71
SWIDTH 382 0
DWIDTH 14 0
BBX 12 25 1 0
BITMAP
006A90
028018
060000
080000
140000
200000
200000
600000
500000
500000
500000
900000
900000
900000
5006A9
500005
500005
600005
200005
200005
140005
080005
060005
028018
006A90
ENDCHAR
STARTCHAR H
ENCODING 72
SWIDTH 425 0
DWIDTH 15 0
BBX 11 25 2 0
BITMAP
800008
800008
800008
800008
800008
800008
800008
800008
800008
800008
800008
AAAAAC
800008
800008
800008
800008
800008
800008
800008
800008
800008
800008
800008
800008
800008
ENDCHAR
STARTCHAR I
ENCODING 73
SWIDTH 141 0
DWIDTH 5 0
BBX 1 25 2 0
BITMAP
80
80
80
80
80
80
80
80
80
80
80
80
80
80
80
80
80
80
80
80
80
80
80
80
80
ENDCHAR
STARTCHAR J
ENCODING 74
SWIDTH 142 0
DWIDTH 5 0
BBX 6 32 -3 -7
BITMAP
0020
0020
0020
0020
0020
0020
0020
0020
0020
0020
0020
0020
0020
0020
0020
0020
0020
0020
0020
0020
0020
0020
0020
0020
0020
0020
0020
0020
0060
0080
0240
A900
ENDCHAR
STARTCHAR K
ENCODING 75
SWIDTH 401 0
DWIDTH 14 0
BBX 13 25 0 0
BITMAP
02000180
02000200
02000900
02000800
02002400
02002000
02006000
02009000
02008000
02024000
1BAA0000
926A4000
AB505000
02002400
02000800
02000800
02000500
02000600
02000200
02000200
02000240
02000140
02000180
02000080
02000080
ENDCHAR
STARTCHAR L
ENCODING 76
SWIDTH 347 0
DWIDTH 12 0
BBX 10 25 2 0
BITMAP
800000
800000
800000
800000
800000
800000
800000
800000
800000
800000
800000
800000
800000
800000
800000
800000
800000
800000
800000
800000
800000
800000
800000
800000
AAAA90
ENDCHAR
STARTCHAR M
ENCODING 77
SWIDTH 534 0
DWIDTH 19 0
BBX 17 25 1 0
BITMAP
0900001C00
0A40006800
08A0018800
0818060800
0806280900
0801E00500
0801E00500
1802200500
1402140600
1406140600
1402240200
1402600200
2401D00200
2000D00200
2001A00200
2002600200
2002200200
2002200200
2001A00240
2000800240
2000000140
2000000140
6000000140
5000000180
5000000080
ENDCHAR
STARTCHAR N
ENCODING 78
SWIDTH 422 0
DWIDTH 15 0
BBX 11 25 2 0
BITMAP
800008
D00008
A00008
A40008
880008
880008
850008
820008
814008
808008
808008
806008
802008
801408
800808
800908
800208
800208
800148
800088
800058
800028
80002C
80001C
800008
ENDCHAR
STARTCHAR O
ENCODING 79
SWIDTH 446 0
DWIDTH 16 0
BBX 14 25 1 0
BITMAP
006A9000
02802800
06000900
08000200
14000140
20000080
20000080
60000090
50000050
50000050
50000060
90000060
90000060
90000060
50000060
50000050
50000050
60000090
20000080
20000080
14000140
08000200
06000900
02802800
006A9000
ENDCHAR
STARTCHAR P
ENCODING 80
SWIDTH 341 0
DWIDTH 12 0
BBX 10 25 2 0
BITMAP
AAA400
800600
800240
800080
800080
800080
800090
800080
800080
800180
800200
801900
AAA000
800000
800000
800000
800000
800000
800000
800000
800000
800000
800000
800000
800000
ENDCHAR
STARTCHAR Q
ENCODING 81
SWIDTH 446 0
DWIDTH 16 0
BBX 14 35 1 -10
BITMAP
006A9000
02802800
06000900
08000200
14000140
20000080
20000080
60000090
50000050
50000050
50000060
90000060
90000060
90000060
50000060
60000050
680001D0
66000A90
20902480
20249080
140A4140
080B0200
06198900
02A4A800
007AD000
00148000
00098000
000B0000
00060000
000A0000
00094000
00098000
00094000
000A4000
00010000
ENDCHAR
STARTCHAR R
ENCODING 82
SWIDTH 380 0
DWIDTH 14 0
BBX 13 25 0 0
BITMAP
0EAA8000
08006000
08001800
08000800
08000900
08000500
08000500
08000500
08000900
08000800
6E901800
88196000
A8078000
1EA99000
08002000
08002400
08000800
08000800
08000900
08000500
08000200
08000200
08000240
08000180
08000080
ENDCHAR
STARTCHAR S
ENCODING 83
SWIDTH 356 0
DWIDTH 13 0
BBX 11 25 1 0
BITMAP
02AA00
090180
200060
600020
500000
500000
500000
200000
240000
080000
060000
019000
002400
000900
000280
000090
000020
000014
000008
400008
800018
800014
600020
180190
06AA00
ENDCHAR
STARTCHAR T
ENCODING 84
SWIDTH 377 0
DWIDTH 14 0
BBX 13 25 0 0
BITMAP
6AAEAA80
00080000
00080000
00080000
00080000
00080000
00080000
00080000
00080000
00080000
00080000
00080000
00080000
00080000
00080000
00080000
00080000
00080000
00080000
00080000
00080000
00080000
00080000
00080000
00080000
ENDCHAR
STARTCHAR U
ENCODING 85
SWIDTH 412 0
DWIDTH 15 0
BBX 12 25 1 0
BITMAP
600002
600002
600002
600002
600002
600002
600002
600002
600002
600002
600002
600002
600002
600002
600002
600002
600002
600002
600002
600002
200002
200002
140009
0A0024
01AA90
ENDCHAR
STARTCHAR V
ENCODING 86
SWIDTH 384 0
DWIDTH 14 0
BBX 14 25 0 0
BITMAP
50000050
60000080
20000080
20000140
14000240
18000200
08000200
08000600
05000500
06000800
02000800
02001800
01401400
01802000
00802000
00806000
00505000
00508000
00208000
00218000
00254000
00160000
000A0000
000A0000
00090000
ENDCHAR
STARTCHAR W
ENCODING 87
SWIDTH 534 0
DWIDTH 19 0
BBX 17 25 1 0
BITMAP
5000000080
5000000180
6000000140
2000000140
2000000140
2000000240
2000000240
2000000200
2001900200
2002200200
2002200200
2002200200
2402200200
1402200200
1401A00200
1400D00600
1400C00600
1801A00500
0802240500
0809080500
0818060900
0820024800
0880009800
0A40002800
0900000C00
ENDCHAR
STARTCHAR X
ENCODING 88
SWIDTH 318 0
DWIDTH 11 0
BBX 11 25 0 0
BITMAP
200014
240020
080060
080090
050080
020140
024200
018200
008500
005800
003800
002400
003400
005800
008900
018600
024200
020140
050080
080080
080060
140020
200024
600008
900008
ENDCHAR
STARTCHAR Y
ENCODING 89
SWIDTH 370 0
DWIDTH 13 0
BBX 13 25 0 0
BITMAP
90000080
60000140
20000200
18000600
08000800
05000800
02002400
01402000
00805000
00908000
00214000
00220000
001A0000
000C0000
00080000
00080000
00080000
00080000
00080000
00080000
00080000
00080000
00080000
00080000
00080000
ENDCHAR
STARTCHAR Z
ENCODING 90
SWIDTH 309 0
DWIDTH 11 0
BBX 11 25 0 0
BITMAP
2AAAB0
000020
000050
000080
000080
000140
000200
000600
000900
000800
001400
002000
002000
005000
008000
008000
024000
020000
060000
080000
080000
140000
200000
200000
7AAAA4
ENDCHAR
STARTCHAR bracketleft
ENCODING 91
SWIDTH 193 0
DWIDTH 7 0
BBX 5 29 2 -2
BITMAP
AA80
8000
8000
8000
8000
8000
8000
8000
8000
8000
8000
8000
8000
8000
8000
8000
8000
8000
8000
8000
8000
8000
8000
8000
8000
8000
8000
8000
AA80
ENDCHAR
STARTCHAR backslash
ENCODING 92
SWIDTH 292 0
DWIDTH 11 0
BBX 11 29 0 -2
BITMAP
800000
500000
200000
200000
140000
080000
080000
050000
020000
020000
014000
008000
008000
005000
002000
002000
001400
000800
000800
000500
000200
000200
000140
000080
000080
000050
000020
000020
000014
ENDCHAR
STARTCHAR bracketright
ENCODING 93
SWIDTH 193 0
DWIDTH 7 0
BBX 5 29 0 -2
BITMAP
AA80
0080
0080
0080
0080
0080
0080
0080
0080
0080
0080
0080
0080
0080
0080
0080
0080
0080
0080
0080
0080
0080
0080
0080
0080
0080
0080
0080
AA80
ENDCHAR
STARTCHAR asciicircum
ENCODING 94
SWIDTH 416 0
DWIDTH 15 0
BBX 13 14 1 11
BITMAP
00080000
001D0000
00220000
00624000
00808000
01809000
02002000
06002400
08000800
18000900
20000200
60000240
80000080
80000080
ENDCHAR
STARTCHAR underscore
ENCODING 95
SWIDTH 556 0
DWIDTH 20 0
BBX 18 1 1 -1
BITMAP
6AAAAAAA90
ENDCHAR
STARTCHAR grave
ENCODING 96
SWIDTH 201 0
DWIDTH 7 0
BBX 3 4 2 19
BITMAP
90
20
14
08
ENDCHAR
STARTCHAR a
ENCODING 97
SWIDTH 315 0
DWIDTH 11 0
BBX 10 17 1 0
BITMAP
06A400
180800
200500
000500
000600
000600
000600
001A00
01A600
0A0600
240600
500600
800600
800600
800A00
602600
2A8290
ENDCHAR
STARTCHAR b
ENCODING 98
SWIDTH 298 0
DWIDTH 11 0
BBX 8 25 2 0
BITMAP
8000
8000
8000
8000
8000
8000
8000
8000
8A80
A020
8014
8008
8008
8008
8009
8009
8009
8009
8009
8008
8008
8008
8014
A020
9A80
ENDCHAR
STARTCHAR c
ENCODING 99
SWIDTH 275 0
DWIDTH 10 0
BBX 8 17 1 0
BITMAP
02A4
0908
1406
2002
2000
5000
5000
9000
9000
9000
5000
5000
2000
2002
1406
0908
02A4
ENDCHAR
STARTCHAR d
ENCODING 100
SWIDTH 298 0
DWIDTH 11 0
BBX 8 25 1 0
BITMAP
0002
0006
0006
0006
0006
0006
0006
0006
06A6
081A
2406
2006
6006
5006
5006
9006
9006
9006
5006
5006
6006
2006
2406
081A
06A6
ENDCHAR
STARTCHAR e
ENCODING 101
SWIDTH 285 0
DWIDTH 10 0
BBX 8 17 1 0
BITMAP
02A4
0808
1405
2002
2002
5002
6AAA
9000
9000
9000
5000
6000
2000
2002
1406
0908
02A4
ENDCHAR
STARTCHAR f
ENCODING 102
SWIDTH 178 0
DWIDTH 6 0
BBX 9 25 0 0
BITMAP
002A40
019000
020000
020000
050000
050000
050000
050000
ABA400
050000
050000
050000
050000
050000
050000
050000
050000
050000
050000
050000
050000
050000
050000
050000
050000
ENDCHAR
STARTCHAR g
ENCODING 103
SWIDTH 302 0
DWIDTH 11 0
BBX 11 26 0 -7
BITMAP
000040
000180
01AA00
020300
090140
0C0080
080080
180090
180090
180090
080080
0800C0
050180
024600
02E800
090000
140000
090000
01A900
6001A0
800018
800008
800008
800018
240060
06AA40
ENDCHAR
STARTCHAR h
ENCODING 104
SWIDTH 307 0
DWIDTH 11 0
BBX 8 25 2 0
BITMAP
8000
8000
8000
8000
8000
8000
8000
8000
8AA0
A418
D008
8009
8009
8009
8009
8009
8009
8009
8009
8009
8009
8009
8009
8009
8005
ENDCHAR
STARTCHAR i
ENCODING 105
SWIDTH 141 0
DWIDTH 5 0
BBX 1 23 2 0
BITMAP
80
80
80
80
00
00
80
80
80
80
80
80
80
80
80
80
80
80
80
80
80
80
80
ENDCHAR
STARTCHAR j
ENCODING 106
SWIDTH 141 0
DWIDTH 5 0
BBX 6 30 -3 -7
BITMAP
0020
0020
0020
0020
0000
0000
0020
0020
0020
0020
0020
0020
0020
0020
0020
0020
0020
0020
0020
0020
0020
0020
0020
0020
0020
0020
0020
0090
0180
A900
ENDCHAR
STARTCHAR k
ENCODING 107
SWIDTH 287 0
DWIDTH 10 0
BBX 8 25 2 0
BITMAP
8000
8000
8000
8000
8000
8000
8000
8000
8004
8018
8020
8090
8140
8600
8A00
A540
D080
8080
8050
8020
8020
8014
8008
8009
8005
ENDCHAR
STARTCHAR l
ENCODING 108
SWIDTH 141 0
DWIDTH 5 0
BBX 1 25 2 0
BITMAP
80
80
80
80
80
80
80
80
80
80
80
80
80
80
80
80
80
80
80
80
80
80
80
80
80
ENDCHAR
STARTCHAR m
ENCODING 109
SWIDTH 407 0
DWIDTH 15 0
BBX 11 17 2 0
BITMAP
900018
A800A8
860248
818908
807408
803008
806408
808808
808808
808808
809808
806408
800008
800008
800008
800008
800008
ENDCHAR
STARTCHAR n
ENCODING 110
SWIDTH 307 0
DWIDTH 11 0
BBX 8 17 2 0
BITMAP
8AA0
A418
D008
8009
8009
8009
8009
8009
8009
8009
8009
8009
8009
8009
8009
8009
8005
ENDCHAR
STARTCHAR o
ENCODING 111
SWIDTH 309 0
DWIDTH 11 0
BBX 9 17 1 0
BITMAP
02A000
090800
140600
200200
200240
500140
500180
900080
900080
900080
500180
500140
200240
200200
140600
090800
02A400
ENDCHAR
STARTCHAR p
ENCODING 112
SWIDTH 299 0
DWIDTH 11 0
BBX 10 26 0 -7
BITMAP
040000
080000
0AA800
2C0600
480140
080080
080080
080080
080090
080090
080050
080090
080090
080080
080080
080080
080140
0A0200
08A800
080000
080000
080000
080000
080000
080000
080000
ENDCHAR
STARTCHAR q
ENCODING 113
SWIDTH 286 0
DWIDTH 10 0
BBX 10 24 1 -7
BITMAP
06A600
081A00
240600
200600
600600
500600
500600
900600
900600
900600
500600
500600
600600
200600
240600
081A00
06A600
000600
000600
000600
000600
000200
000200
000190
ENDCHAR
STARTCHAR r
ENCODING 114
SWIDTH 277 0
DWIDTH 10 0
BBX 8 17 2 0
BITMAP
8AA0
A418
D008
8009
8004
8000
8000
8000
8000
8000
8000
8000
8000
8000
8000
8000
8000
ENDCHAR
STARTCHAR s
ENCODING 115
SWIDTH 257 0
DWIDTH 9 0
BBX 8 17 1 0
BITMAP
0A90
2024
5004
9000
5000
2000
2400
0900
0280
0060
0018
0008
0009
4005
8008
6018
1AA0
ENDCHAR
STARTCHAR t
ENCODING 116
SWIDTH 207 0
DWIDTH 7 0
BBX 7 22 0 0
BITMAP
0100
0200
0200
0200
0200
ABA4
0200
0200
0200
0200
0200
0200
0200
0200
0200
0200
0200
0200
0200
0200
0240
00A4
ENDCHAR
STARTCHAR u
ENCODING 117
SWIDTH 307 0
DWIDTH 11 0
BBX 8 17 1 0
BITMAP
6002
6002
6002
6002
6002
6002
6002
6002
6002
6002
6002
6002
6002
2002
2007
241A
0AA2
ENDCHAR
STARTCHAR v
ENCODING 118
SWIDTH 285 0
DWIDTH 10 0
BBX 10 17 0 0
BITMAP
500050
200050
200080
240080
140180
080140
080200
090200
050600
020500
020800
024800
015800
009400
00A000
00A000
006000
ENDCHAR
STARTCHAR w
ENCODING 119
SWIDTH 396 0
DWIDTH 14 0
BBX 12 17 1 0
BITMAP
800002
800002
800002
800002
902802
502902
506502
506506
602505
202805
201805
202809
206608
208248
224088
290068
180018
ENDCHAR
STARTCHAR x
ENCODING 120
SWIDTH 244 0
DWIDTH 9 0
BBX 7 17 1 0
BITMAP
8014
5024
2020
2050
1480
0880
0A40
0700
0700
0A40
0880
1480
2050
2020
5024
8018
8008
ENDCHAR
STARTCHAR y
ENCODING 121
SWIDTH 285 0
DWIDTH 10 0
BBX 10 24 0 -7
BITMAP
500050
200050
200080
240080
140180
080140
080200
090200
050200
020500
020800
020800
014800
009400
00A000
00A000
006000
005000
008000
008000
008000
014000
060000
680000
ENDCHAR
STARTCHAR z
ENCODING 122
SWIDTH 233 0
DWIDTH 8 0
BBX 8 17 0 0
BITMAP
2AAA
0009
0008
0014
0020
0020
0050
0080
0180
0200
0200
0500
0800
0800
2400
2000
7AA9
ENDCHAR
STARTCHAR braceleft
ENCODING 123
SWIDTH 306 0
DWIDTH 11 0
BBX 11 29 0 -2
BITMAP
0002A8
000900
000800
000800
000800
000800
000800
000800
000800
000800
000800
000800
000800
2A9800
607400
2A9800
000800
000800
000800
000800
000800
000800
000800
000800
000800
000800
000800
000900
0002A8
ENDCHAR
STARTCHAR bar
ENCODING 124
SWIDTH 141 0
DWIDTH 5 0
BBX 1 29 2 -2
BITMAP
80
80
80
80
80
80
80
80
80
80
80
80
80
80
80
80
80
80
80
80
80
80
80
80
80
80
80
80
80
ENDCHAR
STARTCHAR braceright
ENCODING 125
SWIDTH 306 0
DWIDTH 11 0
BBX 11 29 0 -2
BITMAP
AA0000
018000
008000
008000
008000
008000
008000
008000
008000
008000
008000
008000
008000
009AA0
007424
009AA0
008000
008000
008000
008000
008000
008000
008000
008000
008000
008000
008000
018000
AA0000
ENDCHAR
STARTCHAR asciitilde
ENCODING 126
SWIDTH 433 0
DWIDTH 16 0
BBX 13 3 1 8
BITMAP
0A900080
241A4180
5001A900
ENDCHAR
STARTCHAR uni00A0
ENCODING 160
SWIDTH 240 0
DWIDTH 9 0
BBX 1 1 0 0
BITMAP
00
ENDCHAR
STARTCHAR exclamdown
ENCODING 161
SWIDTH 141 0
DWIDTH 5 0
BBX 1 25 2 -5
BITMAP
80
80
80
80
00
00
00
80
80
80
80
80
80
80
80
80
80
80
80
80
80
80
80
80
80
ENDCHAR
STARTCHAR cent
ENCODING 162
SWIDTH 275 0
DWIDTH 10 0
BBX 8 23 1 -3
BITMAP
0080
0080
0080
0080
06E4
0889
2482
2081
6080
5080
9080
9080
9080
5080
6080
2081
2482
1889
06E4
00D0
0080
0080
0080
ENDCHAR
STARTCHAR sterling
ENCODING 163
SWIDTH 331 0
DWIDTH 12 0
BBX 11 25 0 0
BITMAP
01AA40
0A0090
180020
200014
200000
200000
200000
200000
140000
080000
050000
020000
018000
2AEA80
009000
005000
005000
005000
009000
008000
018000
020000
090000
240000
7AAAA8
ENDCHAR
STARTCHAR currency
ENCODING 164
SWIDTH 506 0
DWIDTH 18 0
BBX 15 14 2 4
BITMAP
90000024
246AA090
0A401A40
09000200
14000180
20000080
20000080
20000080
20000080
18000180
09000200
0A801A40
206A9090
80000024
ENDCHAR
STARTCHAR yen
ENCODING 165
SWIDTH 370 0
DWIDTH 13 0
BBX 13 25 0 0
BITMAP
90000080
60000180
20000200
14000600
08000900
05000800
02001400
02402000
01805000
00808000
00518000
00224000
00160000
000D0000
00080000
00080000
0AAEA900
00080000
00080000
0AAEA900
00080000
00080000
00080000
00080000
00080000
ENDCHAR
STARTCHAR brokenbar
ENCODING 166
SWIDTH 141 0
DWIDTH 5 0
BBX 1 29 2 -2
BITMAP
80
80
80
80
80
80
80
80
80
80
80
80
40
00
00
00
00
80
80
80
80
80
80
80
80
80
80
80
80
ENDCHAR
STARTCHAR section
ENCODING 167
SWIDTH 303 0
DWIDTH 11 0
BBX 10 30 0 -3
BITMAP
01A900
0A0180
140090
200020
200000
200000
240000
180000
060000
019000
007800
065600
080180
180090
240050
240050
140090
080080
020600
00B400
001900
000240
000080
000060
000020
000020
600020
200090
090280
02A900
ENDCHAR
STARTCHAR dieresis
ENCODING 168
SWIDTH 241 0
DWIDTH 9 0
BBX 5 4 2 19
BITMAP
8140
8180
8180
8140
ENDCHAR
STARTCHAR copyright
ENCODING 169
SWIDTH 772 0
DWIDTH 28 0
BBX 26 25 1 0
BITMAP
00001AAA400000
00029001680000
00290000064000
0090000000A000
024001A8002400
06000605000900
08000800000200
24001400000240
20002000000080
60002000000080
50002000000090
50002000000090
90002000000050
50002000000090
50002000000090
60002000000080
20002000000080
24001400000240
08000800000200
06000605000900
024001A8002400
0090000000A000
00290000064000
00069001680000
00001AAA400000
ENDCHAR
STARTCHAR ordfeminine
ENCODING 170
SWIDTH 231 0
DWIDTH 8 0
BBX 7 11 1 14
BITMAP
2F40
60C0
0080
0080
0080
0AC0
6480
8080
8080
82C0
7D74
ENDCHAR
STARTCHAR guillemotleft
ENCODING 171
SWIDTH 403 0
DWIDTH 15 0
BBX 12 14 1 3
BITMAP
000802
002409
009024
018060
060180
180600
601800
601800
180600
090280
024090
009024
002409
000802
ENDCHAR
STARTCHAR logicalnot
ENCODING 172
SWIDTH 557 0
DWIDTH 20 0
BBX 18 7 1 5
BITMAP
6AAAAAAA90
0000000020
0000000020
0000000020
0000000020
0000000020
0000000010
ENDCHAR
STARTCHAR uni00AD
ENCODING 173
SWIDTH 286 0
DWIDTH 10 0
BBX 8 1 1 10
BITMAP
6AAA
ENDCHAR
STARTCHAR registered
ENCODING 174
SWIDTH 772 0
DWIDTH 28 0
BBX 26 25 1 0
BITMAP
00001AAA400000
00029001680000
00290000064000
0090000000A000
02400000002400
06000AA4000900
08000809000200
24000802000240
20000802000080
60000802000080
50000806000090
5000081C000090
90000EA8000050
50000809000090
50000806000090
60000802000080
20000802000080
24000801400240
08000801800200
06000800800900
02400400402400
0090000000A000
00290000064000
00069001680000
00001AAA400000
ENDCHAR
STARTCHAR macron
ENCODING 175
SWIDTH 266 0
DWIDTH 10 0
BBX 6 1 2 21
BITMAP
AA90
ENDCHAR
STARTCHAR degree
ENCODING 176
SWIDTH 350 0
DWIDTH 13 0
BBX 10 9 1 16
BITMAP
01A900
090280
240090
200020
600020
200020
240090
090280
01A900
ENDCHAR
STARTCHAR plusminus
ENCODING 177
SWIDTH 577 0
DWIDTH 21 0
BBX 17 17 2 0
BITMAP
0000800000
0000800000
0000800000
0000800000
0000800000
0000800000
0000800000
AAAAEAAA80
0000800000
0000800000
0000800000
0000800000
0000800000
0000800000
0000000000
0000000000
AAAAAAAA80
ENDCHAR
STARTCHAR uni00B2
ENCODING 178
SWIDTH 207 0
DWIDTH 7 0
BBX 6 11 1 14
BITMAP
2F40
6080
4080
0080
0080
0200
0500
1800
2000
9000
FFD0
ENDCHAR
STARTCHAR uni00B3
ENCODING 179
SWIDTH 214 0
DWIDTH 8 0
BBX 6 11 1 14
BITMAP
2E40
6080
0080
0140
0F00
0180
0080
0090
0080
9180
6E00
ENDCHAR
STARTCHAR acute
ENCODING 180
SWIDTH 201 0
DWIDTH 7 0
BBX 3 4 2 19
BITMAP
08
24
60
80
ENDCHAR
STARTCHAR uni00B5
ENCODING 181
SWIDTH 335 0
DWIDTH 12 0
BBX 9 24 2 -7
BITMAP
800500
800900
800900
800900
800900
800900
800900
800900
800900
800900
800900
800900
800900
800900
800900
E02900
9A9680
800000
800000
800000
800000
800000
800000
800000
ENDCHAR
STARTCHAR paragraph
ENCODING 182
SWIDTH 471 0
DWIDTH 17 0
BBX 13 25 2 0
BITMAP
02BFD080
0FFFD080
2FFFD080
7FFFD080
BFFFD080
BFFFD080
BFFFD080
BFFFD080
BFFFD080
7FFFD080
2FFFD080
0BFFD080
01AAD080
00009080
00009080
00009080
00009080
00009080
00009080
00009080
00009080
00009080
00009080
00009080
00009080
ENDCHAR
STARTCHAR periodcentered
ENCODING 183
SWIDTH 181 0
DWIDTH 7 0
BBX 1 4 3 9
BITMAP
80
80
80
80
ENDCHAR
STARTCHAR cedilla
ENCODING 184
SWIDTH 232 0
DWIDTH 8 0
BBX 4 6 2 -6
BITMAP
10
39
52
02
42
69
ENDCHAR
STARTCHAR uni00B9
ENCODING 185
SWIDTH 176 0
DWIDTH 6 0
BBX 5 11 1 14
BITMAP
6800
9800
0800
0800
0800
0800
0800
0800
0800
0800
BF80
ENDCHAR
STARTCHAR ordmasculine
ENCODING 186
SWIDTH 201 0
DWIDTH 7 0
BBX 6 11 1 14
BITMAP
2E00
6140
8080
8080
8090
8050
8090
8080
8080
6180
2E00
ENDCHAR
STARTCHAR guillemotright
ENCODING 187
SWIDTH 403 0
DWIDTH 15 0
BBX 12 14 1 4
BITMAP
501400
240900
090240
024090
008020
006008
001806
001806
006018
018020
020080
080240
240900
501400
ENDCHAR
STARTCHAR onequarter
ENCODING 188
SWIDTH 527 0
DWIDTH 19 0
BBX 15 25 2 0
BITMAP
68000024
98000020
08000090
08000080
08000240
08000200
08000500
08000800
08001400
08002000
FF805000
00008000
00014000
00020000
00050080
00080140
00140200
00200550
00500850
00801850
01402050
02003AE8
05000050
08000050
14000050
ENDCHAR
STARTCHAR onehalf
ENCODING 189
SWIDTH 540 0
DWIDTH 19 0
BBX 16 25 2 0
BITMAP
68000024
98000020
08000090
08000080
08000240
08000200
08000500
08000800
08001400
08002000
FF805000
00008000
00014000
00020000
000501F8
00080209
00140105
00200005
00500008
00800014
01400060
02000080
05000200
08000500
14000BFD
ENDCHAR
STARTCHAR threequarters
ENCODING 190
SWIDTH 517 0
DWIDTH 19 0
BBX 17 25 1 0
BITMAP
2E40000900
6080000800
0080002400
0140002000
0F00009000
0180008000
0080014000
0090020000
0080050000
9180080000
6E00140000
0000200000
0000500000
0000800000
0001402000
0002002000
0005005000
0008008800
0014014800
0020020800
0050050800
00800AAE40
0140000800
0200000800
0500000800
ENDCHAR
STARTCHAR questiondown
ENCODING 191
SWIDTH 300 0
DWIDTH 11 0
BBX 8 25 2 -5
BITMAP
0140
0140
0140
0140
0000
0000
0000
0140
0080
0090
0090
0080
0180
0200
0900
1800
2400
6000
9000
8000
8000
8000
9006
6018
1AA0
ENDCHAR
STARTCHAR Agrave
ENCODING 192
SWIDTH 414 0
DWIDTH 15 0
BBX 15 30 0 0
BITMAP
00200000
00180000
00090000
00010000
00000000
00020000
00070000
000A4000
00098000
00088000
00189000
00245000
00302000
00202000
00502400
00901800
00C00800
01800800
01400900
02400600
03AAAB00
06000200
09000140
08000180
080000C0
14000090
24000060
20000020
20000020
50000014
ENDCHAR
STARTCHAR Aacute
ENCODING 193
SWIDTH 414 0
DWIDTH 15 0
BBX 15 30 0 0
BITMAP
00002000
00009000
00018000
00010000
00000000
00020000
00070000
000A4000
00098000
00088000
00189000
00245000
00302000
00202000
00502400
00901800
00C00800
01800800
01400900
02400600
03AAAB00
06000200
09000140
08000180
080000C0
14000090
24000060
20000020
20000020
50000014
ENDCHAR
STARTCHAR Acircumflex
ENCODING 194
SWIDTH 414 0
DWIDTH 15 0
BBX 15 30 0 0
BITMAP
00020000
00098000
00249000
00202000
00000000
00020000
00070000
000A4000
00098000
00088000
00189000
00245000
00302000
00202000
00502400
00901800
00C00800
01800800
01400900
02400600
03AAAB00
06000200
09000140
08000180
080000C0
14000090
24000060
20000020
20000020
50000014
ENDCHAR
STARTCHAR Atilde
ENCODING 195
SWIDTH 414 0
DWIDTH 15 0
BBX 15 29 0 0
BITMAP
00291400
0081A000
00000000
00000000
00020000
00070000
000A4000
00098000
00088000
00189000
00245000
00302000
00202000
00502400
00901800
00C00800
01800800
01400900
02400600
03AAAB00
06000200
09000140
08000180
080000C0
14000090
24000060
20000020
20000020
50000014
ENDCHAR
STARTCHAR Adieresis
ENCODING 196
SWIDTH 414 0
DWIDTH 15 0
BBX 15 30 0 0
BITMAP
00245000
00245000
00245000
00245000
00000000
00020000
00070000
000A4000
00098000
00088000
00189000
00245000
00302000
00202000
00502400
00901800
00C00800
01800800
01400900
02400600
03AAAB00
06000200
09000140
08000180
080000C0
14000090
24000060
20000020
20000020
50000014
ENDCHAR
STARTCHAR Aring
ENCODING 197
SWIDTH 414 0
DWIDTH 15 0
BBX 15 30 0 0
BITMAP
000A8000
00145000
00145000
000A8000
00000000
00020000
00070000
000A4000
00098000
00088000
00189000
00245000
00302000
00202000
00502400
00901800
00C00800
01800800
01400900
02400600
03AAAB00
06000200
09000140
08000180
080000C0
14000090
24000060
20000020
20000020
50000014
ENDCHAR
STARTCHAR AE
ENCODING 198
SWIDTH 545 0
DWIDTH 20 0
BBX 18 25 0 0
BITMAP
000007AAA0
00000D0000
00001D0000
0000290000
0000250000
0000950000
0000C50000
0001850000
0002450000
0006050000
0009050000
000C07AAA0
0018050000
0034050000
0060050000
00BAAD0000
00C0050000
0240050000
0300050000
0600050000
0900050000
0800050000
2400050000
2000050000
500007AAA0
ENDCHAR
STARTCHAR Ccedilla
ENCODING 199
SWIDTH 366 0
DWIDTH 13 0
BBX 11 31 1 -6
BITMAP
006A90
028018
060000
080000
140000
200000
200000
600000
500000
500000
500000
900000
900000
900000
500000
500000
500000
600000
200000
200000
140000
080000
060000
028018
006A90
000400
000E40
001480
000080
001080
001A40
ENDCHAR
STARTCHAR Egrave
ENCODING 200
SWIDTH 309 0
DWIDTH 11 0
BBX 8 30 2 0
BITMAP
1800
0900
0200
0100
0000
AAA9
8000
8000
8000
8000
8000
8000
8000
8000
8000
8000
AAA9
8000
8000
8000
8000
8000
8000
8000
8000
8000
8000
8000
8000
AAA9
ENDCHAR
STARTCHAR Eacute
ENCODING 201
SWIDTH 309 0
DWIDTH 11 0
BBX 8 30 2 0
BITMAP
0024
0060
0080
0040
0000
AAA9
8000
8000
8000
8000
8000
8000
8000
8000
8000
8000
AAA9
8000
8000
8000
8000
8000
8000
8000
8000
8000
8000
8000
8000
AAA9
ENDCHAR
STARTCHAR Ecircumflex
ENCODING 202
SWIDTH 309 0
DWIDTH 11 0
BBX 8 30 2 0
BITMAP
0140
0690
0820
1414
0000
AAA9
8000
8000
8000
8000
8000
8000
8000
8000
8000
8000
AAA9
8000
8000
8000
8000
8000
8000
8000
8000
8000
8000
8000
8000
AAA9
ENDCHAR
STARTCHAR Edieresis
ENCODING 203
SWIDTH 309 0
DWIDTH 11 0
BBX 8 30 2 0
BITMAP
0820
0820
0820
0820
0000
AAA9
8000
8000
8000
8000
8000
8000
8000
8000
8000
8000
AAA9
8000
8000
8000
8000
8000
8000
8000
8000
8000
8000
8000
8000
AAA9
ENDCHAR
STARTCHAR Igrave
ENCODING 204
SWIDTH 141 0
DWIDTH 5 0
BBX 3 30 0 0
BITMAP
90
20
14
04
00
08
08
08
08
08
08
08
08
08
08
08
08
08
08
08
08
08
08
08
08
08
08
08
08
08
ENDCHAR
STARTCHAR Iacute
ENCODING 205
SWIDTH 141 0
DWIDTH 5 0
BBX 3 30 2 0
BITMAP
08
24
60
40
00
80
80
80
80
80
80
80
80
80
80
80
80
80
80
80
80
80
80
80
80
80
80
80
80
80
ENDCHAR
STARTCHAR Icircumflex
ENCODING 206
SWIDTH 141 0
DWIDTH 5 0
BBX 5 30 0 0
BITMAP
0800
2600
6180
8080
0000
0800
0800
0800
0800
0800
0800
0800
0800
0800
0800
0800
0800
0800
0800
0800
0800
0800
0800
0800
0800
0800
0800
0800
0800
0800
ENDCHAR
STARTCHAR Idieresis
ENCODING 207
SWIDTH 141 0
DWIDTH 5 0
BBX 5 30 0 0
BITMAP
5180
5180
5180
5180
0000
0800
0800
0800
0800
0800
0800
0800
0800
0800
0800
0800
0800
0800
0800
0800
0800
0800
0800
0800
0800
0800
0800
0800
0800
0800
ENDCHAR
STARTCHAR Eth
ENCODING 208
SWIDTH 396 0
DWIDTH 14 0
BBX 13 25 0 0
BITMAP
0AAA8000
08006000
08000800
08000500
08000200
08000200
08000240
08000140
08000180
08000080
08000080
08000080
08000080
6EA80080
08000080
08000080
08000180
08000140
08000240
08000200
08000200
08000500
08000800
08006000
0AAA8000
ENDCHAR
STARTCHAR Ntilde
ENCODING 209
SWIDTH 422 0
DWIDTH 15 0
BBX 11 29 2 0
BITMAP
029080
051A00
000000
000000
800008
D00008
A00008
A40008
880008
880008
850008
820008
814008
808008
808008
806008
802008
801408
800808
800908
800208
800208
800148
800088
800058
800028
80002C
80001C
800008
ENDCHAR
STARTCHAR Ograve
ENCODING 210
SWIDTH 446 0
DWIDTH 16 0
BBX 14 30 1 0
BITMAP
00200000
00240000
00080000
00040000
00000000
006A9000
02802800
06000900
08000200
14000140
20000080
20000080
60000090
50000050
50000050
50000060
90000060
90000060
90000060
50000060
50000050
50000050
60000090
20000080
20000080
14000140
08000200
06000900
02802800
006A9000
ENDCHAR
STARTCHAR Oacute
ENCODING 211
SWIDTH 446 0
DWIDTH 16 0
BBX 14 30 1 0
BITMAP
00005000
00008000
00024000
00010000
00000000
006A9000
02802800
06000900
08000200
14000140
20000080
20000080
60000090
50000050
50000050
50000060
90000060
90000060
90000060
50000060
50000050
50000050
60000090
20000080
20000080
14000140
08000200
06000900
02802800
006A9000
ENDCHAR
STARTCHAR Ocircumflex
ENCODING 212
SWIDTH 446 0
DWIDTH 16 0
BBX 14 30 1 0
BITMAP
00050000
001A4000
00208000
00505000
00000000
006A9000
02802800
06000900
08000200
14000140
20000080
20000080
60000090
50000050
50000050
50000060
90000060
90000060
90000060
50000060
50000050
50000050
60000090
20000080
20000080
14000140
08000200
06000900
02802800
006A9000
ENDCHAR
STARTCHAR Otilde
ENCODING 213
SWIDTH 446 0
DWIDTH 16 0
BBX 14 29 1 0
BITMAP
00692000
00869000
00000000
00000000
006A9000
02802800
06000900
08000200
14000140
20000080
20000080
60000090
50000050
50000050
50000060
90000060
90000060
90000060
50000060
50000050
50000050
60000090
20000080
20000080
14000140
08000200
06000900
02802800
006A9000
ENDCHAR
STARTCHAR Odieresis
ENCODING 214
SWIDTH 446 0
DWIDTH 16 0
BBX 14 30 1 0
BITMAP
00208000
00208000
00208000
00208000
00000000
006A9000
02802800
06000900
08000200
14000140
20000080
20000080
60000090
50000050
50000050
50000060
90000060
90000060
90000060
50000060
50000050
50000050
60000090
20000080
20000080
14000140
08000200
06000900
02802800
006A9000
ENDCHAR
STARTCHAR multiply
ENCODING 215
SWIDTH 445 0
DWIDTH 16 0
BBX 12 13 2 2
BITMAP
800002
600009
180024
060090
018240
006900
002800
009600
024180
090060
240018
900006
400001
ENDCHAR
STARTCHAR Oslash
ENCODING 216
SWIDTH 446 0
DWIDTH 16 0
BBX 14 25 1 0
BITMAP
006A9080
02802940
06000B00
08000700
14000A40
20001880
20002080
60002090
50009050
50008050
50014060
90020060
90050060
90080060
50180060
50200050
50200050
20900090
20800080
22400080
1A000140
0D000200
0E000900
16802800
206A9000
ENDCHAR
STARTCHAR Ugrave
ENCODING 217
SWIDTH 412 0
DWIDTH 15 0
BBX 12 30 1 0
BITMAP
008000
006000
002400
000400
000000
600002
600002
600002
600002
600002
600002
600002
600002
600002
600002
600002
600002
600002
600002
600002
600002
600002
600002
600002
600002
200002
200002
140009
0A0024
01AA90
ENDCHAR
STARTCHAR Uacute
ENCODING 218
SWIDTH 412 0
DWIDTH 15 0
BBX 12 30 1 0
BITMAP
000080
000240
000600
000400
000000
600002
600002
600002
600002
600002
600002
600002
600002
600002
600002
600002
600002
600002
600002
600002
600002
600002
600002
600002
600002
200002
200002
140009
0A0024
01AA90
ENDCHAR
STARTCHAR Ucircumflex
ENCODING 219
SWIDTH 412 0
DWIDTH 15 0
BBX 12 30 1 0
BITMAP
000800
002600
009240
004040
000000
600002
600002
600002
600002
600002
600002
600002
600002
600002
600002
600002
600002
600002
600002
600002
600002
600002
600002
600002
600002
200002
200002
140009
0A0024
01AA90
ENDCHAR
STARTCHAR Udieresis
ENCODING 220
SWIDTH 412 0
DWIDTH 15 0
BBX 12 30 1 0
BITMAP
008140
008140
008140
008140
000000
600002
600002
600002
600002
600002
600002
600002
600002
600002
600002
600002
600002
600002
600002
600002
600002
600002
600002
600002
600002
200002
200002
140009
0A0024
01AA90
ENDCHAR
STARTCHAR Yacute
ENCODING 221
SWIDTH 370 0
DWIDTH 13 0
BBX 13 30 0 0
BITMAP
00008000
00014000
00020000
00050000
00000000
90000080
60000140
20000200
18000600
08000800
05000800
02002400
01402000
00805000
00908000
00214000
00220000
001A0000
000C0000
00080000
00080000
00080000
00080000
00080000
00080000
00080000
00080000
00080000
00080000
00080000
ENDCHAR
STARTCHAR Thorn
ENCODING 222
SWIDTH 341 0
DWIDTH 12 0
BBX 10 25 2 0
BITMAP
800000
800000
800000
800000
800000
AAA400
800A00
800240
800080
800080
800080
800090
800080
800080
800180
800200
801900
AAA000
800000
800000
800000
800000
800000
800000
800000
ENDCHAR
STARTCHAR germandbls
ENCODING 223
SWIDTH 327 0
DWIDTH 12 0
BBX 8 25 2 0
BITMAP
1A90
2024
5008
8008
8008
8009
8009
8008
8008
8008
8698
8834
8698
8005
8002
8002
8002
8002
8002
8002
8002
8005
8008
8024
9A90
ENDCHAR
STARTCHAR agrave
ENCODING 224
SWIDTH 315 0
DWIDTH 11 0
BBX 10 23 1 0
BITMAP
050000
020000
018000
008000
000000
000000
06A400
180800
200500
000500
000600
000600
000600
001A00
01A600
0A0600
240600
500600
800600
800600
800A00
602600
2A8290
ENDCHAR
STARTCHAR aacute
ENCODING 225
SWIDTH 315 0
DWIDTH 11 0
BBX 10 23 1 0
BITMAP
001800
002000
005000
008000
000000
000000
06A400
180800
200500
000500
000600
000600
000600
001A00
01A600
0A0600
240600
500600
800600
800600
800A00
602600
2A8290
ENDCHAR
STARTCHAR acircumflex
ENCODING 226
SWIDTH 315 0
DWIDTH 11 0
BBX 10 23 1 0
BITMAP
008000
026000
061400
080900
000000
000000
06A400
180800
200500
000500
000600
000600
000600
001A00
01A600
0A0600
240600
500600
800600
800600
800A00
602600
2A8290
ENDCHAR
STARTCHAR atilde
ENCODING 227
SWIDTH 315 0
DWIDTH 11 0
BBX 10 22 1 0
BITMAP
1A4200
206900
000000
000000
000000
06A400
180800
200500
000500
000600
000600
000600
001A00
01A600
0A0600
240600
500600
800600
800600
800A00
602600
2A8290
ENDCHAR
STARTCHAR adieresis
ENCODING 228
SWIDTH 315 0
DWIDTH 11 0
BBX 10 23 1 0
BITMAP
080800
080800
080800
080800
000000
000000
06A400
180800
200500
000500
000600
000600
000600
001A00
01A600
0A0600
240600
500600
800600
800600
800A00
602600
2A8290
ENDCHAR
STARTCHAR aring
ENCODING 229
SWIDTH 315 0
DWIDTH 11 0
BBX 10 24 1 0
BITMAP
02A000
051400
090800
051400
02A000
000000
000000
06A400
180800
200500
000500
000600
000600
000600
001A00
01A600
0A0600
240600
500600
800600
800600
800A00
602600
2A8290
ENDCHAR
STARTCHAR ae
ENCODING 230
SWIDTH 450 0
DWIDTH 16 0
BBX 14 17 1 0
BITMAP
06A42A40
24085080
50058050
00064020
00070020
00060020
00060020
006BAAA0
0A960000
34060000
50060000
80020000
80020000
80020020
800A4060
60248080
1A902A40
ENDCHAR
STARTCHAR ccedilla
ENCODING 231
SWIDTH 275 0
DWIDTH 10 0
BBX 8 23 1 -6
BITMAP
02A4
0908
1406
2002
2000
5000
5000
9000
9000
9000
5000
5000
2000
2002
1406
0908
02A4
0040
02A0
0114
0008
0514
02A0
ENDCHAR
STARTCHAR egrave
ENCODING 232
SWIDTH 285 0
DWIDTH 10 0
BBX 8 23 1 0
BITMAP
0500
0200
0180
0080
0000
0000
02A4
0808
1405
2002
2002
5002
6AAA
9000
9000
9000
5000
6000
2000
2002
1406
0908
02A4
ENDCHAR
STARTCHAR eacute
ENCODING 233
SWIDTH 285 0
DWIDTH 10 0
BBX 8 23 1 0
BITMAP
0018
0020
0050
0080
0000
0000
02A4
0808
1405
2002
2002
5002
6AAA
9000
9000
9000
5000
6000
2000
2002
1406
0908
02A4
ENDCHAR
STARTCHAR ecircumflex
ENCODING 234
SWIDTH 285 0
DWIDTH 10 0
BBX 8 23 1 0
BITMAP
0080
0260
0514
0808
0000
0000
02A4
0808
1405
2002
2002
5002
6AAA
9000
9000
9000
5000
6000
2000
2002
1406
0908
02A4
ENDCHAR
STARTCHAR edieresis
ENCODING 235
SWIDTH 285 0
DWIDTH 10 0
BBX 8 23 1 0
BITMAP
0808
0808
0808
0808
0000
0000
02A4
0808
1405
2002
2002
5002
6AAA
9000
9000
9000
5000
6000
2000
2002
1406
0908
02A4
ENDCHAR
STARTCHAR igrave
ENCODING 236
SWIDTH 141 0
DWIDTH 5 0
BBX 3 23 0 0
BITMAP
50
20
18
08
00
00
08
08
08
08
08
08
08
08
08
08
08
08
08
08
08
08
08
ENDCHAR
STARTCHAR iacute
ENCODING 237
SWIDTH 141 0
DWIDTH 5 0
BBX 3 23 2 0
BITMAP
18
20
50
80
00
00
80
80
80
80
80
80
80
80
80
80
80
80
80
80
80
80
80
ENDCHAR
STARTCHAR icircumflex
ENCODING 238
SWIDTH 141 0
DWIDTH 5 0
BBX 6 23 0 0
BITMAP
0800
2600
6180
8090
0000
0000
0800
0800
0800
0800
0800
0800
0800
0800
0800
0800
0800
0800
0800
0800
0800
0800
0800
ENDCHAR
STARTCHAR idieresis
ENCODING 239
SWIDTH 141 0
DWIDTH 5 0
BBX 5 23 0 0
BITMAP
8080
8080
8080
8080
0000
0000
0800
0800
0800
0800
0800
0800
0800
0800
0800
0800
0800
0800
0800
0800
0800
0800
0800
ENDCHAR
STARTCHAR eth
ENCODING 240
SWIDTH 319 0
DWIDTH 11 0
BBX 9 25 1 0
BITMAP
180000
060000
018000
009A40
01B400
091800
000800
000600
02A600
090740
140240
200080
200080
500080
500080
900080
900080
900080
500080
500080
200140
200200
140200
090800
02A400
ENDCHAR
STARTCHAR ntilde
ENCODING 241
SWIDTH 307 0
DWIDTH 11 0
BBX 8 22 2 0
BITMAP
6908
81A4
0000
0000
0000
8AA0
A418
D008
8009
8009
8009
8009
8009
8009
8009
8009
8009
8009
8009
8009
8009
8005
ENDCHAR
STARTCHAR ograve
ENCODING 242
SWIDTH 309 0
DWIDTH 11 0
BBX 9 23 1 0
BITMAP
050000
020000
018000
008000
000000
000000
02A000
090800
140600
200200
200240
500140
500180
900080
900080
900080
500180
500140
200240
200200
140600
090800
02A400
ENDCHAR
STARTCHAR oacute
ENCODING 243
SWIDTH 309 0
DWIDTH 11 0
BBX 9 23 1 0
BITMAP
000800
002000
006000
008000
000000
000000
02A000
090800
140600
200200
200240
500140
500180
900080
900080
900080
500180
500140
200240
200200
140600
090800
02A400
ENDCHAR
STARTCHAR ocircumflex
ENCODING 244
SWIDTH 309 0
DWIDTH 11 0
BBX 9 23 1 0
BITMAP
008000
026000
061800
080900
000000
000000
02A000
090800
140600
200200
200240
500140
500180
900080
900080
900080
500180
500140
200240
200200
140600
090800
02A400
ENDCHAR
STARTCHAR otilde
ENCODING 245
SWIDTH 309 0
DWIDTH 11 0
BBX 9 22 1 0
BITMAP
0A4200
246900
000000
000000
000000
02A000
090800
140600
200200
200240
500140
500180
900080
900080
900080
500180
500140
200240
200200
140600
090800
02A400
ENDCHAR
STARTCHAR odieresis
ENCODING 246
SWIDTH 309 0
DWIDTH 11 0
BBX 9 23 1 0
BITMAP
080800
080800
080800
080800
000000
000000
02A000
090800
140600
200200
200240
500140
500180
900080
900080
900080
500180
500140
200240
200200
140600
090800
02A400
ENDCHAR
STARTCHAR divide
ENCODING 247
SWIDTH 577 0
DWIDTH 21 0
BBX 17 17 2 0
BITMAP
0000800000
0000800000
0000800000
0000800000
0000000000
0000000000
0000000000
0000000000
AAAAAAAA80
0000000000
0000000000
0000000000
0000000000
0000800000
0000800000
0000800000
0000800000
ENDCHAR
STARTCHAR oslash
ENCODING 248
SWIDTH 309 0
DWIDTH 11 0
BBX 9 17 1 0
BITMAP
02A140
090A00
140600
200A00
200A40
502540
502180
905180
908080
918080
520180
520140
290240
280200
280600
280800
62A400
ENDCHAR
STARTCHAR ugrave
ENCODING 249
SWIDTH 307 0
DWIDTH 11 0
BBX 8 23 1 0
BITMAP
0500
0200
0180
0080
0000
0000
6002
6002
6002
6002
6002
6002
6002
6002
6002
6002
6002
6002
6002
2002
2007
241A
0AA2
ENDCHAR
STARTCHAR uacute
ENCODING 250
SWIDTH 307 0
DWIDTH 11 0
BBX 8 23 1 0
BITMAP
0018
0020
0050
0080
0000
0000
6002
6002
6002
6002
6002
6002
6002
6002
6002
6002
6002
6002
6002
2002
2007
241A
0AA2
ENDCHAR
STARTCHAR ucircumflex
ENCODING 251
SWIDTH 307 0
DWIDTH 11 0
BBX 8 23 1 0
BITMAP
0080
0260
0614
0809
0000
0000
6002
6002
6002
6002
6002
6002
6002
6002
6002
6002
6002
6002
6002
2002
2007
241A
0AA2
ENDCHAR
STARTCHAR udieresis
ENCODING 252
SWIDTH 307 0
DWIDTH 11 0
BBX 8 23 1 0
BITMAP
0808
0808
0808
0808
0000
0000
6002
6002
6002
6002
6002
6002
6002
6002
6002
6002
6002
6002
6002
2002
2007
241A
0AA2
ENDCHAR
STARTCHAR yacute
ENCODING 253
SWIDTH 285 0
DWIDTH 10 0
BBX 10 30 0 -7
BITMAP
000900
001800
002000
005000
000000
000000
500050
200050
200080
240080
140180
080140
080200
090200
050200
020500
020800
020800
014800
009400
00A000
00A000
006000
005000
008000
008000
008000
014000
060000
680000
ENDCHAR
STARTCHAR thorn
ENCODING 254
SWIDTH 299 0
DWIDTH 11 0
BBX 10 32 0 -7
BITMAP
080000
080000
080000
080000
080000
080000
080000
080000
0AA800
2C0600
480140
080080
080080
080080
080090
080090
080050
080090
080090
080080
080080
080080
080140
0A0200
08A800
080000
080000
080000
080000
080000
080000
080000
ENDCHAR
STARTCHAR ydieresis
ENCODING 255
SWIDTH 285 0
DWIDTH 10 0
BBX 10 30 0 -7
BITMAP
020500
020500
020500
020500
000000
000000
500050
200050
200080
240080
140180
080140
080200
090200
050200
020500
020800
020800
014800
009400
00A000
00A000
006000
005000
008000
008000
008000
014000
060000
680000
ENDCHAR
STARTCHAR dotlessi
ENCODING 305
SWIDTH 141 0
DWIDTH 5 0
BBX 1 17 2 0
BITMAP
80
80
80
80
80
80
80
80
80
80
80
80
80
80
80
80
80
ENDCHAR
STARTCHAR OE
ENCODING 338
SWIDTH 505 0
DWIDTH 18 0
BBX 16 25 1 0
BITMAP
006AEAA9
02808000
06008000
0C008000
14008000
20008000
20008000
60008000
50008000
50008000
50008000
9000AAA9
90008000
90008000
50008000
50008000
60008000
20008000
20008000
20008000
18008000
08008000
06008000
02808000
006AEAA9
ENDCHAR
STARTCHAR oe
ENCODING 339
SWIDTH 492 0
DWIDTH 18 0
BBX 16 17 1 0
BITMAP
02A00690
09081424
14062008
20025009
2002C005
5001C006
5001EAA9
90008000
90008000
90008000
5001C000
5001C000
20029000
20026005
14052008
09081818
02A006A0
ENDCHAR
STARTCHAR Wcircumflex
ENCODING 372
SWIDTH 534 0
DWIDTH 19 0
BBX 17 30 1 0
BITMAP
0000800000
0002600000
0006180000
0004040000
0000000000
5000000080
5000000180
6000000140
2000000140
2000000140
2000000240
2000000240
2000000200
2001900200
2002200200
2002200200
2002200200
2402200200
1402200200
1401A00200
1400D00600
1400C00600
1801A00500
0802240500
0809080500
0818060900
0820024800
0880009800
0A40002800
0900000C00
ENDCHAR
STARTCHAR wcircumflex
ENCODING 373
SWIDTH 396 0
DWIDTH 14 0
BBX 12 23 1 0
BITMAP
001800
002900
008200
024080
000000
000000
800002
800002
800002
800002
902802
502902
506502
506506
602505
202805
201805
202809
206608
208248
224088
290068
180018
ENDCHAR
STARTCHAR Ycircumflex
ENCODING 374
SWIDTH 370 0
DWIDTH 13 0
BBX 13 30 0 0
BITMAP
00090000
00260000
00618000
00404000
00000000
90000080
60000140
20000200
18000600
08000800
05000800
02002400
01402000
00805000
00908000
00214000
00220000
001A0000
000C0000
00080000
00080000
00080000
00080000
00080000
00080000
00080000
00080000
00080000
00080000
00080000
ENDCHAR
STARTCHAR ycircumflex
ENCODING 375
SWIDTH 285 0
DWIDTH 10 0
BBX 10 30 0 -7
BITMAP
006000
00A400
020800
050200
000000
000000
500050
200050
200080
240080
140180
080140
080200
090200
050200
020500
020800
020800
014800
009400
00A000
00A000
006000
005000
008000
008000
008000
014000
060000
680000
ENDCHAR
STARTCHAR Ydieresis
ENCODING 376
SWIDTH 370 0
DWIDTH 13 0
BBX 13 30 0 0
BITMAP
00508000
00508000
00508000
00508000
00000000
90000080
60000140
20000200
18000600
08000800
05000800
02002400
01402000
00805000
00908000
00214000
00220000
001A0000
000C0000
00080000
00080000
00080000
00080000
00080000
00080000
00080000
00080000
00080000
00080000
00080000
ENDCHAR
STARTCHAR uni0237
ENCODING 567
SWIDTH 141 0
DWIDTH 5 0
BBX 6 24 -3 -7
BITMAP
0020
0020
0020
0020
0020
0020
0020
0020
0020
0020
0020
0020
0020
0020
0020
0020
0020
0020
0020
0020
0020
0090
0180
A900
ENDCHAR
STARTCHAR circumflex
ENCODING 710
SWIDTH 280 0
DWIDTH 10 0
BBX 6 4 2 19
BITMAP
0600
1A40
2080
9060
ENDCHAR
STARTCHAR ring
ENCODING 730
SWIDTH 238 0
DWIDTH 9 0
BBX 5 5 2 19
BITMAP
2900
9240
8140
9240
2900
ENDCHAR
STARTCHAR tilde
ENCODING 732
SWIDTH 301 0
DWIDTH 11 0
BBX 7 2 2 20
BITMAP
6918
81A0
ENDCHAR
STARTCHAR gravecomb
ENCODING 768
SWIDTH 0 0
DWIDTH 0 0
BBX 3 4 2 19
BITMAP
90
20
14
08
ENDCHAR
STARTCHAR acutecomb
ENCODING 769
SWIDTH 0 0
DWIDTH 0 0
BBX 3 4 2 19
BITMAP
08
24
60
80
ENDCHAR
STARTCHAR uni0302
ENCODING 770
SWIDTH 0 0
DWIDTH 0 0
BBX 6 4 2 19
BITMAP
0600
1A40
2080
9060
ENDCHAR
STARTCHAR tildecomb
ENCODING 771
SWIDTH 0 0
DWIDTH 0 0
BBX 7 2 2 20
BITMAP
6918
81A0
ENDCHAR
STARTCHAR uni0307
ENCODING 775
SWIDTH 0 0
DWIDTH 0 0
BBX 1 4 2 19
BITMAP
80
80
80
80
ENDCHAR
STARTCHAR uni0308
ENCODING 776
SWIDTH 0 0
DWIDTH 0 0
BBX 5 4 2 19
BITMAP
8140
8180
8180
8140
ENDCHAR
STARTCHAR uni030A
ENCODING 778
SWIDTH 0 0
DWIDTH 0 0
BBX 5 5 2 19
BITMAP
2900
9240
8140
9240
2900
ENDCHAR
STARTCHAR uni0327
ENCODING 807
SWIDTH 0 0
DWIDTH 0 0
BBX 4 6 2 -6
BITMAP
10
39
52
02
42
69
ENDCHAR
STARTCHAR Wgrave
ENCODING 7808
SWIDTH 534 0
DWIDTH 19 0
BBX 17 30 1 0
BITMAP
0005000000
0002000000
0001800000
0000400000
0000000000
5000000080
5000000180
6000000140
2000000140
2000000140
2000000240
2000000240
2000000200
2001900200
2002200200
2002200200
2002200200
2402200200
1402200200
1401A00200
1400D00600
1400C00600
1801A00500
0802240500
0809080500
0818060900
0820024800
0880009800
0A40002800
0900000C00
ENDCHAR
STARTCHAR wgrave
ENCODING 7809
SWIDTH 396 0
DWIDTH 14 0
BBX 12 23 1 0
BITMAP
008000
006000
002400
000800
000000
000000
800002
800002
800002
800002
902802
502902
506502
506506
602505
202805
201805
202809
206608
208248
224088
290068
180018
ENDCHAR
STARTCHAR Wacute
ENCODING 7810
SWIDTH 534 0
DWIDTH 19 0
BBX 17 30 1 0
BITMAP
0000080000
0000140000
0000200000
0000400000
0000000000
5000000080
5000000180
6000000140
2000000140
2000000140
2000000240
2000000240
2000000200
2001900200
2002200200
2002200200
2002200200
2402200200
1402200200
1401A00200
1400D00600
1400C00600
1801A00500
0802240500
0809080500
0818060900
0820024800
0880009800
0A40002800
0900000C00
ENDCHAR
STARTCHAR wacute
ENCODING 7811
SWIDTH 396 0
DWIDTH 14 0
BBX 12 23 1 0
BITMAP
000240
000600
000800
001400
000000
000000
800002
800002
800002
800002
902802
502902
506502
506506
602505
202805
201805
202809
206608
208248
224088
290068
180018
ENDCHAR
STARTCHAR Wdieresis
ENCODING 7812
SWIDTH 534 0
DWIDTH 19 0
BBX 17 30 1 0
BITMAP
0005080000
0005180000
0005180000
0005080000
0000000000
5000000080
5000000180
6000000140
2000000140
2000000140
2000000240
2000000240
2000000200
2001900200
2002200200
2002200200
2002200200
2402200200
1402200200
1401A00200
1400D00600
1400C00600
1801A00500
0802240500
0809080500
0818060900
0820024800
0880009800
0A40002800
0900000C00
ENDCHAR
STARTCHAR wdieresis
ENCODING 7813
SWIDTH 396 0
DWIDTH 14 0
BBX 12 23 1 0
BITMAP
008140
008140
008140
008140
000000
000000
800002
800002
800002
800002
902802
502902
506502
506506
602505
202805
201805
202809
206608
208248
224088
290068
180018
ENDCHAR
STARTCHAR uni1E9E
ENCODING 7838
SWIDTH 375 0
DWIDTH 14 0
BBX 10 25 2 0
BITMAP
0AA400
240900
600200
900140
800080
800080
800080
800080
800180
800140
82A600
850E00
82A540
800080
800050
800050
800060
800020
800060
800050
800090
800080
800140
800600
9AA400
ENDCHAR
STARTCHAR Ygrave
ENCODING 7922
SWIDTH 370 0
DWIDTH 13 0
BBX 13 30 0 0
BITMAP
00500000
00200000
00180000
00040000
00000000
90000080
60000140
20000200
18000600
08000800
05000800
02002400
01402000
00805000
00908000
00214000
00220000
001A0000
000C0000
00080000
00080000
00080000
00080000
00080000
00080000
00080000
00080000
00080000
00080000
00080000
ENDCHAR
STARTCHAR ygrave
ENCODING 7923
SWIDTH 285 0
DWIDTH 10 0
BBX 10 30 0 -7
BITMAP
020000
018000
009000
002000
000000
000000
500050
200050
200080
240080
140180
080140
080200
090200
050200
020500
020800
020800
014800
009400
00A000
00A000
006000
005000
008000
008000
008000
014000
060000
680000
ENDCHAR
STARTCHAR endash
ENCODING 8211
SWIDTH 425 0
DWIDTH 15 0
BBX 13 1 1 8
BITMAP
6AAAAA80
ENDCHAR
STARTCHAR emdash
ENCODING 8212
SWIDTH 770 0
DWIDTH 28 0
BBX 25 1 1 8
BITMAP
6AAAAAAAAAAA80
ENDCHAR
STARTCHAR quoteleft
ENCODING 8216
SWIDTH 145 0
DWIDTH 5 0
BBX 3 7 1 18
BITMAP
18
20
60
60
60
60
10
ENDCHAR
STARTCHAR quoteright
ENCODING 8217
SWIDTH 145 0
DWIDTH 5 0
BBX 3 7 1 18
BITMAP
04
14
14
14
14
24
90
ENDCHAR
STARTCHAR quotesinglbase
ENCODING 8218
SWIDTH 145 0
DWIDTH 5 0
BBX 2 7 1 -3
BITMAP
10
20
20
20
20
20
90
ENDCHAR
STARTCHAR quotedblleft
ENCODING 8220
SWIDTH 219 0
DWIDTH 8 0
BBX 6 7 1 18
BITMAP
18A0
2180
6240
6240
6240
6240
1100
ENDCHAR
STARTCHAR quotedblright
ENCODING 8221
SWIDTH 219 0
DWIDTH 8 0
BBX 5 7 1 18
BITMAP
0440
1480
1480
1480
1480
2480
9240
ENDCHAR
STARTCHAR quotedblbase
ENCODING 8222
SWIDTH 219 0
DWIDTH 8 0
BBX 5 7 1 -3
BITMAP
1040
2080
2080
2080
2080
2180
9600
ENDCHAR
STARTCHAR bullet
ENCODING 8226
SWIDTH 355 0
DWIDTH 13 0
BBX 9 9 2 8
BITMAP
015000
1FFD00
7FFF00
BFFF40
BFFF80
BFFF80
7FFF40
2FFE00
0BE400
ENDCHAR
STARTCHAR ellipsis
ENCODING 8230
SWIDTH 651 0
DWIDTH 23 0
BBX 18 4 3 0
BITMAP
8000800060
8000800060
8000800060
8000800060
ENDCHAR
STARTCHAR guilsinglleft
ENCODING 8249
SWIDTH 263 0
DWIDTH 9 0
BBX 7 14 1 3
BITMAP
0008
0024
0090
0180
0600
1800
6000
6000
1800
0900
0240
0090
0024
0008
ENDCHAR
STARTCHAR guilsinglright
ENCODING 8250
SWIDTH 263 0
DWIDTH 9 0
BBX 7 14 1 4
BITMAP
5000
2400
0900
0240
0080
0060
0018
0018
0060
0180
0200
0800
2400
5000
ENDCHAR
STARTCHAR fraction
ENCODING 8260
SWIDTH 152 0
DWIDTH 5 0
BBX 13 25 -4 0
BITMAP
00000080
00000180
00000200
00000600
00000800
00001800
00002000
00006000
00008000
00018000
00020000
00060000
00080000
00180000
00240000
00200000
00900000
00800000
02400000
02000000
09000000
08000000
24000000
20000000
50000000
ENDCHAR
STARTCHAR uni2074
ENCODING 8308
SWIDTH 247 0
DWIDTH 9 0
BBX 7 11 1 14
BITMAP
0200
0200
0900
0880
2580
2180
5180
AAE4
0180
0180
0080
ENDCHAR
STARTCHAR Euro
ENCODING 8364
SWIDTH 391 0
DWIDTH 14 0
BBX 13 25 0 0
BITMAP
0006A900
00280180
00900000
00800000
02400000
02000000
02000000
06000000
05000000
09000000
AEAA0000
08000000
08000000
08000000
AEAA0000
09000000
05000000
05000000
02000000
02000000
02400000
00800000
00900000
00280180
0006A900
ENDCHAR
STARTCHAR trademark
ENCODING 8482
SWIDTH 506 0
DWIDTH 18 0
BBX 17 13 0 12
BITMAP
7FFC600240
02406D1E40
024062A140
024061D140
0240626140
024061A140
024060D140
024061A140
0240626140
024061D140
0240600140
0240600140
0100100000
ENDCHAR
STARTCHAR minus
ENCODING 8722
SWIDTH 557 0
DWIDTH 20 0
BBX 18 1 1 11
BITMAP
7FFFFFFFD0
ENDCHAR
STARTCHAR uni2215
ENCODING 8725
SWIDTH 259 0
DWIDTH 9 0
BBX 9 26 0 0
BITMAP
000040
000080
000180
000240
000200
000600
000900
000800
000800
001400
002000
002000
005000
008000
008000
014000
020000
020000
050000
080000
080000
140000
200000
200000
500000
800000
ENDCHAR
STARTCHAR .notdef
ENCODING -1
SWIDTH 500 0
DWIDTH 18 0
BBX 16 32 1 -7
BITMAP
7FFFFFFD
7EAAAABD
7800002D
7800002D
7800002D
7800002D
7800002D
7800002D
7800002D
7800002D
7800002D
7800002D
7800002D
7800002D
7800002D
7800002D
7800002D
7800002D
7800002D
7800002D
7800002D
7800002D
7800002D
7800002D
7800002D
7800002D
7800002D
7800002D
7800002D
7800002D
7EAAAABD
7FFFFFFD
ENDCHAR
STARTCHAR NULL
ENCODING -1
SWIDTH 600 0
DWIDTH 22 0
BBX 1 1 0 0
BITMAP
00
ENDCHAR
STARTCHAR acutecomb.case
ENCODING -1
SWIDTH 0 0
DWIDTH 0 0
BBX 3 4 2 26
BITMAP
18
20
50
40
ENDCHAR
STARTCHAR uni0302.case
ENCODING -1
SWIDTH 0 0
DWIDTH 0 0
BBX 5 4 2 26
BITMAP
0900
2600
6180
4040
ENDCHAR
STARTCHAR uni0308.case
ENCODING -1
SWIDTH 0 0
DWIDTH 0 0
BBX 4 4 2 26
BITMAP
82
82
82
82
ENDCHAR
STARTCHAR uni0307.case
ENCODING -1
SWIDTH 0 0
DWIDTH 0 0
BBX 1 4 2 26
BITMAP
80
80
80
80
ENDCHAR
STARTCHAR gravecomb.case
ENCODING -1
SWIDTH 0 0
DWIDTH 0 0
BBX 3 4 2 26
BITMAP
80
60
24
04
ENDCHAR
STARTCHAR uni030A.case
ENCODING -1
SWIDTH 0 0
DWIDTH 0 0
BBX 4 4 2 26
BITMAP
29
82
82
29
ENDCHAR
STARTCHAR tildecomb.case
ENCODING -1
SWIDTH 0 0
DWIDTH 0 0
BBX 7 2 2 27
BITMAP
6914
82A0
ENDCHAR
ENDFONT
